<svg width="575" height="556" viewBox="0 0 575 556" fill="none" xmlns="http://www.w3.org/2000/svg">
<g clip-path="url(#clip0_432_2779)">
<rect width="575" height="556" fill="white"/>
<g clip-path="url(#clip1_432_2779)">
<path d="M25.9165 293.44C25.9165 293.44 24.5343 293.44 23.8431 293.44C9.5027 292.405 -1.03666 279.811 -2.48947e-06 265.666C3.45553 220.64 17.9688 176.478 41.8119 137.663C49.2413 125.415 65.3095 121.62 77.4038 129.21C89.671 136.628 93.4721 152.671 85.8699 164.747C66.0006 197.007 54.4246 232.371 51.4874 269.633C50.4507 283.262 39.0475 293.44 25.7437 293.44H25.9165Z" fill="black"/>
<path d="M348.836 59.171C346.762 59.171 344.862 58.9985 342.788 58.481C305.123 49.5104 269.877 49.5104 232.212 58.481C218.389 61.7587 204.395 53.3057 200.939 39.3323C197.656 25.359 206.122 11.3857 220.117 8.10801C265.557 -2.76012 309.27 -2.76012 354.883 8.10801C368.878 11.3857 377.344 25.359 374.061 39.3323C371.124 51.2355 360.584 59.171 348.836 59.171V59.171Z" fill="black"/>
<path d="M549.084 293.44C535.607 293.44 524.377 283.089 523.34 269.633C520.403 232.544 508.654 196.316 489.303 164.747C481.874 152.499 485.675 136.628 497.769 129.21C510.036 121.792 525.932 125.587 533.361 137.663C557.031 176.305 571.544 220.468 575 265.665C576.037 279.984 565.497 292.405 551.157 293.44C550.466 293.44 549.775 293.44 549.084 293.44Z" fill="black"/>
<path d="M387.883 556C377.689 556 368.014 549.962 363.867 539.957C358.338 526.673 364.731 511.665 377.862 506.145C411.899 491.999 442.826 469.572 467.188 441.108C476.517 430.24 492.931 429.033 503.816 438.176C514.701 447.491 515.91 463.88 506.753 474.748C477.036 509.422 439.37 536.851 397.731 554.102C394.449 555.482 391.166 556 387.883 556V556Z" fill="black"/>
<path d="M187.29 556C184.007 556 180.551 555.31 177.441 554.102C135.802 536.851 98.137 509.422 68.4195 474.748C59.0895 463.88 60.4718 447.491 71.3567 438.176C82.2416 428.86 98.6553 430.24 107.812 441.108C132.174 469.572 163.101 492.171 197.138 506.145C210.442 511.665 216.662 526.673 211.133 539.957C206.986 549.962 197.311 556 187.117 556H187.29Z" fill="black"/>
</g>
</g>
<defs>
<clipPath id="clip0_432_2779">
<rect width="575" height="556" fill="white"/>
</clipPath>
<clipPath id="clip1_432_2779">
<rect width="575" height="556" fill="white"/>
</clipPath>
</defs>
</svg>
